<svg width="50" height="46" viewBox="0 0 50 46" fill="none" xmlns="http://www.w3.org/2000/svg">
<path d="M36.9034 14.005C36.4424 12.2145 33.6761 7.42073 23.4753 5.80487C15.2349 4.50235 9.04904 9.3857 9.04904 9.3857C9.04904 9.3857 3.10935 13.8393 1.10856 20.4236C-0.641566 26.1753 0.204401 28.0418 0.204401 28.0418C0.204401 28.0418 0.656477 29.2682 2.07537 29.5278C2.07537 29.5278 4.39844 29.5904 4.91319 27.4957L4.98033 40.9552C4.98033 40.9552 5.62487 42.7634 7.62566 43.023C9.16541 43.22 10.2083 42.4412 10.7902 40.6328V43.4752C10.7902 43.4752 11.3721 45.7355 13.6728 46.004C13.722 46.0086 13.7757 45.9996 13.825 45.9951C15.9555 45.8027 16.6001 45.0909 17.1193 43.9272C17.3118 43.4931 17.3074 42.938 17.3342 42.477C17.3879 41.6533 17.4014 40.8298 17.4058 40.0061C17.4193 38.3501 17.3879 36.6939 17.3386 35.0378C17.3251 34.6305 17.3386 34.2723 17.4058 33.865C17.7236 34.5186 18.2204 35.087 18.8248 35.4854C19.3887 35.8614 20.06 36.0942 20.7404 36.0763C21.4208 36.0584 22.1012 35.7808 22.5443 35.2661C23.0994 34.6259 23.2246 33.7264 23.2604 32.8803C23.332 31.1839 22.7412 29.595 22.589 27.9299C22.3608 25.4859 22.4683 22.9615 23.6633 20.7816C24.724 18.8525 26.2683 17.183 28.1304 16.0057C30.6011 14.4391 33.6045 13.7364 36.514 14.0452L36.9034 14.0094V14.005Z" fill="#070707"/>
<path d="M25.9231 41.0589C29.4531 41.0589 32.3148 38.1972 32.3148 34.6671C32.3148 31.1371 29.4531 28.2754 25.9231 28.2754C22.393 28.2754 19.5312 31.1371 19.5312 34.6671C19.5312 38.1972 22.393 41.0589 25.9231 41.0589Z" fill="#FFB500"/>
<path d="M27.0865 0C19.5936 0 12.9736 3.7151 9.00781 9.39071C12.2216 7.56449 15.9501 6.51709 19.9249 6.51709C24.3651 6.51709 28.4964 7.81963 31.9519 10.0666C32.583 10.4739 33.1962 10.9126 33.7871 11.3781C35.6715 12.8641 37.3589 14.6859 38.3974 16.8702C39.4404 19.0633 39.673 22.1474 39.1001 24.4973C38.6972 26.1489 37.9542 27.7067 36.9337 29.0629C35.8416 30.513 34.4405 31.7171 32.8606 32.5989C32.1489 32.9974 31.3611 33.1226 30.6851 33.615C30.0228 34.0939 29.4857 34.7474 29.1545 35.495C28.662 36.605 28.6397 37.9075 29.0649 39.0443C29.3603 39.8277 29.9333 40.7094 30.6316 41.1928C31.9071 42.0702 33.541 42.4014 35.0628 42.1239C36.7367 41.8195 38.1959 40.6557 39.5702 39.7159C40.4653 39.1025 41.3158 38.4223 42.1125 37.6837C44.2654 35.6874 46.0156 33.257 47.2108 30.5758C48.4416 27.814 49.0771 24.8017 49.0771 21.7803C49.0771 9.74879 39.2389 0 27.1 0H27.0865Z" fill="#2E2E2E"/>
<mask id="mask0_1825_155060" style="mask-type:luminance" maskUnits="userSpaceOnUse" x="9" y="0" width="41" height="43">
<path d="M27.0865 0C19.5936 0 12.9736 3.7151 9.00781 9.39071C12.2216 7.56449 15.9501 6.51709 19.9249 6.51709C24.3651 6.51709 28.4964 7.81963 31.9519 10.0666C32.583 10.4739 33.1962 10.9126 33.7871 11.3781C35.6715 12.8641 37.3589 14.6859 38.3974 16.8702C39.4404 19.0633 39.673 22.1474 39.1001 24.4973C38.6972 26.1489 37.9542 27.7067 36.9337 29.0629C35.8416 30.513 34.4405 31.7171 32.8606 32.5989C32.1489 32.9974 31.3611 33.1226 30.6851 33.615C30.0228 34.0939 29.4857 34.7474 29.1545 35.495C28.662 36.605 28.6397 37.9075 29.0649 39.0443C29.3603 39.8277 29.9333 40.7094 30.6316 41.1928C31.9071 42.0702 33.541 42.4014 35.0628 42.1239C36.7367 41.8195 38.1959 40.6557 39.5702 39.7159C40.4653 39.1025 41.3158 38.4223 42.1125 37.6837C44.2654 35.6874 46.0156 33.257 47.2108 30.5758C48.4416 27.814 49.0771 24.8017 49.0771 21.7803C49.0771 9.74879 39.2389 0 27.1 0H27.0865Z" fill="white"/>
</mask>
<g mask="url(#mask0_1825_155060)">
<path d="M38.7483 40.2791C38.7483 40.2791 46.3486 28.073 38.5066 17.1201C38.5066 17.1201 41.2459 23.8118 36.734 29.3218C36.734 29.3218 34.7244 31.7344 32.8579 32.6027C32.8579 32.6027 29.568 33.6502 29.1472 35.4942C29.1472 35.4942 27.7238 38.5156 30.1632 40.8028C30.1632 40.8028 31.8328 42.3113 34.0575 42.2173C34.0575 42.2173 35.4002 42.8305 38.7483 40.2791Z" fill="#070707"/>
</g>
</svg>
